<?xml version="1.0" standalone="no"?>
<!DOCTYPE svg PUBLIC "-//W3C//DTD SVG 20010904//EN"
 "http://www.w3.org/TR/2001/REC-SVG-20010904/DTD/svg10.dtd">
<svg version="1.0" xmlns="http://www.w3.org/2000/svg"
 width="912.000000pt" height="846.000000pt" viewBox="0 0 912.000000 846.000000"
 preserveAspectRatio="xMidYMid meet">

<g transform="translate(0.000000,846.000000) scale(0.100000,-0.100000)"
fill="#0a1a3a" stroke="none">
<path d="M0 4230 l0 -4230 4560 0 4560 0 0 4230 0 4230 -4560 0 -4560 0 0
-4230z m2463 231 l327 -184 0 -376 -1 -376 -321 -190 c-177 -104 -329 -191
-337 -192 -9 -1 -162 85 -341 191 l-325 194 -2 368 -3 369 333 192 c182 106
335 191 338 190 3 -1 152 -85 332 -186z m1510 -181 c38 -6 91 -20 118 -31 l49
-21 0 -204 c0 -234 6 -220 -105 -248 -74 -20 -270 -21 -340 -2 -61 16 -124 47
-147 73 -34 37 -58 107 -58 169 0 129 60 214 175 245 104 29 199 34 308 19z
m310 -5 c15 -7 92 -73 171 -144 79 -72 146 -131 150 -131 3 0 7 62 8 138 l3
137 38 3 37 3 0 -260 0 -261 -25 0 c-25 0 -47 18 -265 214 l-85 76 -5 -143 -5
-142 -72 -3 -73 -3 0 233 c0 251 3 268 54 288 30 12 37 12 69 -5z m1469 -22
c15 -15 73 -93 128 -173 l100 -145 -2 -85 -3 -85 -237 -3 c-131 -1 -238 1
-238 4 0 4 20 35 46 70 l45 64 105 0 c57 0 104 2 104 4 0 11 -122 181 -130
181 -4 0 -54 -65 -110 -145 -56 -80 -109 -153 -118 -162 -12 -15 -32 -18 -104
-18 -48 0 -88 4 -88 9 0 6 76 117 170 249 181 256 203 277 270 268 19 -3 46
-18 62 -33z m502 -92 c71 -64 144 -129 162 -144 l34 -28 0 145 0 146 75 0 75
0 0 -28 c0 -17 -9 -37 -21 -48 -69 -62 -90 -195 -45 -289 13 -27 33 -58 44
-69 19 -17 20 -21 7 -46 -16 -32 -33 -40 -80 -40 -28 0 -55 20 -196 147 l-164
147 -5 -144 -5 -145 -70 0 -70 0 -2 225 c-3 242 0 263 47 287 46 24 79 5 214
-116z m-2654 112 c0 -3 -22 -30 -50 -59 -27 -29 -50 -58 -50 -63 0 -7 -49 -11
-142 -11 -120 0 -150 -4 -186 -20 -85 -39 -92 -148 -12 -195 30 -17 56 -20
185 -24 l150 -3 26 -38 27 -37 -25 -32 -24 -31 -128 0 c-147 0 -227 12 -291
45 -171 88 -189 316 -32 420 67 44 130 54 350 54 111 1 202 -2 202 -6z m1560
-63 l0 -70 -145 0 -145 0 0 -30 0 -30 145 0 145 0 0 -65 0 -65 -145 0 -144 0
-3 -92 -3 -93 -80 0 -80 0 -3 258 -2 257 230 0 230 0 0 -70z m180 -103 l0
-174 -61 -86 c-40 -59 -66 -87 -80 -87 -18 0 -19 9 -19 260 l0 260 80 0 80 0
0 -173z m1730 103 l0 -70 -137 0 c-152 0 -209 -16 -231 -66 -21 -45 -15 -98
14 -128 38 -37 82 -46 227 -46 l128 0 -3 -67 -3 -68 -150 0 c-117 0 -161 4
-202 18 -72 25 -127 68 -160 124 -24 40 -28 59 -28 119 0 61 4 77 30 120 34
55 111 107 179 123 23 5 107 9 189 10 l147 1 0 -70z m604 58 c-4 -7 -28 -39
-52 -70 l-45 -58 -163 0 -164 0 0 -25 0 -25 200 0 c110 0 200 -3 200 -6 0 -3
-21 -32 -46 -65 l-47 -59 -153 0 -154 0 0 -30 0 -30 215 -2 214 -3 -51 -67
-52 -68 -243 0 -243 0 0 260 0 260 296 0 c233 0 294 -3 288 -12z m-1960 -288
c14 -22 26 -42 26 -45 0 -3 -25 -5 -55 -5 -31 0 -55 5 -55 10 0 13 43 80 51
80 4 0 18 -18 33 -40z m-2739 -366 c0 -72 -3 -89 -15 -89 -12 0 -16 17 -18 79
-3 87 1 110 21 103 8 -2 12 -30 12 -93z m133 69 l10 -28 1 28 c1 17 6 27 16
27 13 0 15 -15 13 -92 -3 -100 -20 -128 -33 -56 l-8 43 -6 -38 c-11 -71 -26
-44 -29 51 -2 75 0 92 12 92 8 0 19 -12 24 -27z m212 1 c6 -14 10 -49 10 -79
0 -62 -18 -88 -59 -83 -26 3 -26 4 -29 96 l-3 92 36 0 c29 0 37 -5 45 -26z
m130 -49 c0 -43 4 -75 10 -75 6 0 10 32 10 75 0 60 3 75 15 75 12 0 15 -16 15
-85 0 -72 -3 -86 -18 -94 -27 -14 -59 -3 -66 22 -8 30 -7 142 1 150 3 4 12 7
20 7 10 0 13 -19 13 -75z m215 46 c0 -13 -6 -26 -12 -28 -7 -3 -13 2 -13 11 0
9 -4 16 -10 16 -20 0 -9 -38 15 -54 53 -34 19 -125 -35 -96 -11 6 -20 17 -20
25 0 18 23 32 28 17 6 -19 22 -14 22 6 0 11 -11 24 -25 30 -20 9 -25 19 -25
50 0 47 6 54 45 50 24 -2 30 -8 30 -27z m165 14 c0 -8 -4 -15 -10 -15 -5 0
-10 -35 -12 -77 -2 -61 -6 -78 -18 -78 -12 0 -16 17 -18 78 -2 42 -7 77 -12
77 -6 0 -10 7 -10 15 0 11 11 15 40 15 29 0 40 -4 40 -15z m156 -65 c1 -41 3
-82 5 -90 2 -8 -3 -15 -11 -15 -9 0 -17 12 -19 30 l-4 30 -6 -30 c-4 -17 -13
-30 -21 -30 -12 0 -16 19 -18 93 l-3 93 38 -3 38 -3 1 -75z m129 -16 c0 -72
-3 -89 -15 -89 -12 0 -16 17 -18 79 -3 87 1 110 21 103 8 -2 12 -30 12 -93z
m170 2 c0 -63 -4 -91 -12 -93 -9 -3 -13 7 -13 31 0 44 -18 48 -22 4 -2 -17 -9
-33 -15 -36 -10 -3 -13 19 -13 86 0 49 3 92 7 96 4 4 21 6 38 4 l30 -3 0 -89z
m253 6 c3 -79 2 -82 -22 -93 -48 -22 -56 -8 -56 91 l0 91 38 -3 37 -3 3 -83z
m162 73 c0 -8 -7 -15 -15 -15 -21 0 -19 -30 3 -46 16 -13 16 -15 0 -28 -10 -7
-18 -19 -18 -26 0 -7 8 -19 18 -26 22 -17 4 -37 -29 -32 -23 3 -24 7 -27 96
l-3 92 36 0 c24 0 35 -4 35 -15z m239 1 c8 -9 11 -43 9 -93 -2 -61 -6 -78 -18
-78 -10 0 -17 12 -19 35 l-4 35 -6 -35 c-4 -22 -12 -35 -21 -35 -12 0 -16 16
-18 72 -2 40 2 82 8 93 12 23 52 27 69 6z m169 2 c17 -17 15 -48 -3 -48 -7 0
-19 8 -24 18 -8 13 -10 1 -11 -47 0 -56 2 -62 15 -51 11 9 19 10 26 3 11 -11
2 -43 -13 -43 -5 0 -6 -9 -3 -20 7 -21 -19 -40 -33 -25 -4 4 -2 10 5 12 9 3 6
11 -7 26 -16 17 -20 35 -20 97 0 42 3 80 7 83 11 11 48 8 61 -5z m180 -73 c2
-66 0 -82 -14 -92 -45 -33 -74 -2 -74 78 0 79 12 101 53 97 l32 -3 3 -80z"/>
<path d="M1878 4314 l-248 -146 0 -293 0 -293 246 -147 c164 -98 251 -144 262
-140 22 8 464 275 479 289 9 8 -17 28 -108 79 l-120 69 -130 -77 -130 -76
-135 78 -134 78 2 149 3 149 132 74 132 74 105 -60 c165 -96 138 -94 271 -15
63 38 115 71 115 74 0 4 -470 271 -488 277 -4 2 -118 -63 -254 -143z"/>
<path d="M3764 4141 c-72 -12 -92 -25 -105 -73 -15 -58 -2 -115 34 -142 26
-19 42 -21 166 -21 184 0 211 16 211 121 0 55 -12 79 -49 98 -34 18 -187 28
-257 17z"/>
<path d="M3270 3620 c0 -33 4 -60 10 -60 6 0 10 27 10 60 0 33 -4 60 -10 60
-6 0 -10 -27 -10 -60z"/>
<path d="M3952 3655 c0 -16 2 -22 5 -12 2 9 2 23 0 30 -3 6 -5 -1 -5 -18z"/>
<path d="M4240 3650 c0 -16 5 -30 10 -30 6 0 10 14 10 30 0 17 -4 30 -10 30
-5 0 -10 -13 -10 -30z"/>
<path d="M4490 3620 c0 -33 4 -60 10 -60 6 0 10 27 10 60 0 33 -4 60 -10 60
-6 0 -10 -27 -10 -60z"/>
<path d="M4902 3650 c0 -19 2 -27 5 -17 2 9 2 25 0 35 -3 9 -5 1 -5 -18z"/>
<path d="M5240 3620 c0 -33 4 -60 10 -60 6 0 10 27 10 60 0 33 -4 60 -10 60
-6 0 -10 -27 -10 -60z"/>
</g>
</svg>