<?xml version="1.0" standalone="no"?>
<!DOCTYPE svg PUBLIC "-//W3C//DTD SVG 20010904//EN"
 "http://www.w3.org/TR/2001/REC-SVG-20010904/DTD/svg10.dtd">
<svg version="1.0" xmlns="http://www.w3.org/2000/svg"
 width="1024.000000pt" height="1024.000000pt" viewBox="0 0 1024.000000 1024.000000"
 preserveAspectRatio="xMidYMid meet">

<g transform="translate(0.000000,1024.000000) scale(0.100000,-0.100000)" stroke="none">

<!-- Azul: símbolo triangular A e texto CONFIANCE -->
<g fill="#1e3a8a">
<path d="M1496 7008 c-7 -13 -62 -111 -121 -218 -60 -107 -163 -292 -230 -410
-102 -178 -343 -610 -443 -790 -27 -48 -132 -237 -214 -385 -49 -87 -85 -151
-180 -320 -74 -132 -118 -213 -118 -219 0 -3 31 -6 70 -6 l69 0 41 69 c22 39
43 78 47 88 4 10 19 38 33 63 33 56 166 291 352 623 78 139 193 344 256 457
63 113 133 239 155 280 22 41 54 100 72 130 45 76 317 565 344 618 l21 42 -70
0 c-61 0 -71 -3 -84 -22z"/>
<path d="M1726 6995 c-9 -14 -13 -25 -9 -25 10 0 36 40 30 46 -2 3 -12 -7 -21
-21z"/>
<path d="M1745 6792 c-71 -125 -150 -263 -176 -307 -77 -132 -209 -365 -209
-369 0 -2 18 3 40 10 112 39 309 43 441 9 l65 -16 164 -297 c90 -163 193 -351
229 -417 l66 -120 166 -3 166 -2 6 127 c4 71 9 137 12 148 4 13 -10 48 -41
100 -26 44 -120 208 -209 365 -89 157 -191 335 -227 395 -35 61 -121 207 -190
325 -69 118 -133 230 -142 248 -9 17 -20 32 -24 32 -4 0 -65 -103 -137 -228z"/>
<path d="M1690 6941 c-9 -18 -9 -26 1 -35 9 -8 11 -7 6 5 -3 9 -1 22 5 30 8
11 9 11 5 -2 -7 -22 8 -46 16 -26 3 8 0 23 -7 33 -13 17 -14 16 -26 -5z"/>
<path d="M1671 6873 c-1 -13 -5 -23 -11 -23 -5 0 -7 8 -3 18 9 25 -2 12 -20
-24 -14 -27 -14 -31 -1 -31 9 0 13 6 9 15 -4 12 -3 13 9 3 13 -11 16 -8 22 13
3 14 4 31 1 38 -3 7 -6 3 -6 -9z"/>
<path d="M1618 6799 c-17 -11 -18 -56 -1 -56 9 0 9 5 1 21 -10 19 -9 19 5 8
13 -11 17 -10 26 7 6 11 11 21 11 24 0 7 -29 4 -42 -4z"/>
<path d="M1339 6318 c-7 -12 -14 -41 -15 -63 l-2 -40 19 35 c21 41 25 67 4 30
-19 -33 -19 -13 0 24 9 16 13 31 11 33 -2 3 -10 -6 -17 -19z"/>
<path d="M1148 5984 c-41 -65 -40 -64 -22 -57 13 5 15 2 9 -18 -6 -21 -4 -20
14 6 12 17 19 36 16 43 -3 7 -1 11 4 8 12 -8 21 29 11 44 -6 9 -15 1 -32 -26z"/>
<path d="M3903 5765 c-134 -29 -215 -98 -253 -214 -20 -64 -21 -83 -18 -322 3
-234 5 -258 26 -310 66 -165 206 -225 507 -214 244 8 350 58 414 195 l26 55 0
290 c0 277 -1 292 -22 337 -26 57 -87 120 -144 149 -24 12 -77 27 -118 35 -97
17 -337 17 -418 -1z m396 -201 c56 -22 78 -58 92 -145 14 -90 6 -357 -12 -413
-15 -43 -55 -77 -113 -96 -61 -20 -281 -9 -330 15 -78 39 -81 48 -84 298 -4
260 0 285 60 324 32 22 58 29 122 34 110 10 216 3 265 -17z"/>
<path d="M3115 5748 c-186 -14 -283 -81 -320 -223 -21 -84 -22 -475 0 -560 20
-76 58 -131 118 -172 88 -59 132 -66 439 -70 152 -2 279 1 282 5 7 11 -13 152
-25 173 -7 14 -38 17 -246 21 -369 8 -358 -2 -358 323 0 319 -13 308 343 315
201 4 244 8 252 20 9 13 12 50 14 146 l1 27 -205 1 c-113 1 -245 -2 -295 -6z"/>
<path d="M4670 5234 l0 -515 98 3 97 3 0 398 c0 218 2 397 5 397 3 0 92 -170
198 -378 106 -209 200 -386 211 -396 14 -13 44 -17 150 -20 l131 -4 0 514 0
514 -101 0 -102 0 7 -317 c3 -175 9 -351 12 -392 5 -55 3 -72 -6 -69 -6 2 -38
60 -69 128 -50 109 -150 309 -270 544 -50 97 -70 106 -233 106 l-128 0 0 -516z"/>
<path d="M5615 5738 c-3 -7 -4 -238 -3 -513 l3 -500 103 -3 102 -3 0 416 0
415 220 0 c258 0 244 -6 256 123 l7 77 -342 0 c-264 0 -343 -3 -346 -12z"/>
<path d="M6328 5668 c-2 -40 -4 -136 -3 -213 0 -77 2 -273 3 -435 l2 -295 177
-2 c98 0 187 3 199 7 16 6 31 36 60 114 l39 106 204 -2 204 -3 36 -94 c51
-132 47 -130 279 -130 l184 -1 -3 400 c-2 220 -2 400 1 400 3 0 91 -170 195
-377 135 -269 198 -383 218 -397 23 -17 47 -21 152 -24 l125 -4 0 511 0 511
-101 0 -102 0 6 -367 c2 -203 8 -376 13 -387 5 -12 3 -17 -4 -15 -6 2 -93 167
-192 367 -152 305 -187 366 -213 383 -27 16 -51 19 -164 19 l-133 0 0 -477 c0
-290 -4 -473 -9 -467 -5 5 -26 50 -46 99 -20 50 -52 124 -70 165 -18 41 -83
199 -145 350 -132 323 -137 330 -233 330 -78 0 -127 -23 -140 -65 -5 -16 -20
-59 -34 -95 -14 -36 -52 -132 -83 -215 -31 -82 -90 -235 -131 -340 l-74 -190
-3 453 -2 452 -104 0 -104 0 -4 -72z m749 -350 l70 -183 -135 -3 c-74 -1 -136
-1 -138 1 -2 2 23 79 56 170 33 92 60 174 60 182 0 44 24 -3 87 -167z"/>
<path d="M6970 5293 c-18 -48 -35 -94 -38 -100 -3 -10 15 -13 72 -13 42 0 76
3 76 7 0 11 -63 177 -70 186 -4 4 -22 -32 -40 -80z"/>
<path d="M8690 5724 c-90 -24 -142 -55 -177 -107 -49 -73 -58 -133 -57 -382 0
-183 3 -230 18 -283 33 -111 93 -171 207 -207 43 -14 107 -19 323 -22 l269 -5
-6 82 c-4 57 -10 88 -21 99 -14 13 -52 17 -239 21 -338 9 -331 2 -335 310 -4
315 -6 313 323 318 124 2 225 8 232 14 7 5 15 31 18 56 3 26 8 64 10 85 l5 37
-257 -1 c-192 0 -272 -4 -313 -15z"/>
<path d="M9282 5318 c4 -371 6 -429 21 -468 23 -57 42 -78 97 -104 42 -19 65
-21 354 -24 l309 -4 -8 79 c-4 46 -13 85 -22 95 -13 14 -46 17 -254 20 -233 3
-239 4 -261 26 -21 20 -23 32 -23 115 l0 92 229 2 c125 0 232 5 236 10 4 4 10
45 13 91 l6 82 -222 0 c-122 0 -232 3 -245 6 -22 6 -23 10 -20 108 l3 101 252
3 c293 3 271 -6 280 118 l6 74 -377 0 -378 0 4 -422z"/>
<path d="M980 5690 c-11 -22 -17 -40 -13 -40 5 0 2 -4 -5 -9 -11 -7 -11 -9 1
-14 9 -3 21 3 30 16 21 33 48 87 43 87 -2 0 -13 -15 -25 -32 -21 -33 -30 -23
-11 13 6 10 8 19 6 19 -3 0 -15 -18 -26 -40z"/>
<path d="M822 5413 c-5 -10 -7 -23 -5 -30 2 -6 -7 -33 -21 -60 -16 -31 -25
-41 -26 -28 0 13 -14 -1 -41 -44 -39 -62 -45 -87 -14 -61 8 7 12 16 9 21 -3 5
1 6 8 4 9 -4 23 11 37 37 13 24 37 64 53 89 34 56 43 89 23 89 -8 0 -18 -8
-23 -17z m-52 -139 c0 -3 -5 -14 -10 -25 -16 -28 -30 -23 -17 6 11 22 27 34
27 19z"/>
<path d="M791 5359 c-7 -12 -10 -23 -8 -26 3 -3 11 5 17 17 15 28 8 35 -9 9z"/>
<path d="M5880 5240 l0 -90 162 2 162 3 6 25 c4 14 10 53 14 88 l7 62 -176 0
-175 0 0 -90z"/>
<path d="M790 5130 c-23 -41 -49 -86 -58 -99 -43 -69 -203 -363 -199 -367 2
-2 147 -3 322 -2 l317 3 -60 44 c-112 80 -214 240 -248 386 -28 119 -26 118
-74 35z"/>
<path d="M592 4968 c2 -7 -5 -12 -14 -12 -12 1 -31 -22 -60 -75 -24 -42 -49
-88 -58 -103 -54 -95 -60 -108 -47 -108 7 0 13 10 14 22 1 11 8 25 15 29 7 5
9 9 5 9 -5 0 6 18 23 40 17 22 35 38 40 35 11 -7 22 24 13 37 -3 7 -1 8 5 4
15 -9 36 32 24 47 -7 8 -6 20 3 37 8 14 14 19 15 13 0 -20 18 -15 30 6 7 14 7
22 0 26 -6 4 -9 1 -8 -7z"/>
<path d="M440 4699 c0 -5 5 -7 10 -4 6 3 10 8 10 11 0 2 -4 4 -10 4 -5 0 -10
-5 -10 -11z"/>
</g>

<!-- Vermelho: C curvo e texto AÇCOS -->
<g fill="#cc2020">
<path d="M4460 6860 c-77 -17 -132 -51 -165 -105 -30 -48 -30 -51 -34 -209 -4
-205 6 -253 64 -312 60 -59 99 -69 285 -69 181 0 227 12 284 75 51 56 58 98
54 295 -4 187 -8 203 -70 262 -51 49 -106 64 -248 68 -69 2 -145 0 -170 -5z
m287 -121 c47 -18 58 -53 61 -204 6 -231 -13 -258 -187 -263 -189 -6 -214 17
-220 206 -6 215 11 258 109 271 64 8 205 3 237 -10z"/>
<path d="M3131 6847 c-25 -31 -324 -667 -317 -675 12 -12 105 -13 126 -2 13 7
38 46 62 96 l39 84 162 0 163 0 39 -81 c22 -45 48 -85 58 -91 24 -12 104 -19
127 -10 16 6 -3 49 -150 350 l-169 342 -64 0 c-42 0 -68 -5 -76 -13z m147
-299 l41 -87 -52 -6 c-61 -7 -177 -3 -177 7 0 4 21 51 46 105 25 54 50 109 56
123 10 25 10 25 28 -15 10 -22 36 -79 58 -127z"/>
<path d="M3805 6850 c-96 -20 -149 -55 -178 -119 -19 -41 -21 -65 -22 -211 0
-189 12 -238 71 -289 36 -32 117 -61 170 -61 31 0 32 -1 24 -27 -4 -16 -11
-36 -15 -45 -6 -15 -2 -18 28 -18 42 0 66 -22 47 -45 -8 -10 -31 -15 -71 -15
-56 0 -59 -1 -65 -27 -3 -16 -7 -33 -9 -40 -8 -26 143 -33 200 -9 41 18 55 42
55 99 0 38 -5 49 -30 70 -16 14 -35 27 -41 29 -7 2 -9 10 -5 16 5 8 45 12 126
12 l118 0 -5 43 c-2 23 -6 47 -8 54 -3 8 -58 12 -187 15 -256 4 -258 6 -258
228 0 76 4 150 10 164 5 14 24 35 42 46 30 18 51 20 199 20 187 0 185 -1 195
74 l7 46 -179 -1 c-99 -1 -197 -5 -219 -9z"/>
<path d="M5140 6851 c-97 -20 -130 -65 -130 -178 0 -134 35 -161 275 -217 169
-40 191 -54 181 -114 -10 -62 -10 -62 -218 -62 -109 0 -197 -4 -208 -10 -16
-9 -40 -64 -40 -92 0 -5 111 -8 248 -8 271 0 293 4 336 63 28 39 35 152 11
212 -23 63 -58 80 -251 125 -91 21 -173 44 -180 52 -25 24 -28 71 -6 98 l20
25 177 -3 c205 -4 215 0 215 74 l0 42 -197 0 c-109 0 -214 -3 -233 -7z"/>
<path d="M1525 5969 c-146 -24 -263 -85 -367 -191 -84 -85 -142 -187 -173
-303 -24 -92 -22 -262 6 -350 34 -111 84 -199 153 -272 71 -75 142 -122 244
-162 l67 -26 758 -3 c416 -1 757 1 757 6 0 5 -22 18 -49 31 -119 53 -192 159
-213 308 l-11 82 -576 3 -576 3 -43 25 c-83 47 -128 155 -103 249 16 60 44 96
99 128 l47 28 246 5 247 5 -62 110 c-34 61 -89 158 -121 217 -50 91 -63 107
-88 112 -41 8 -181 5 -242 -5z"/>
</g>


</g>
<!-- Tagline como texto real -->
<text
  x="512"
  y="630"
  text-anchor="middle"
  font-family="Arial, Helvetica, sans-serif"
  font-size="28"
  font-weight="400"
  letter-spacing="6"
  fill="#777777">INOVAÇÃO EM FERRO E AÇO</text>

</svg>